REM DIRINDEX 1\2,1\3,1\4,1\5
REM DIRNAME cjc004,folder01,folder02,folder03,folder04
TITLE ""
FILE "1Q_t_0070-0079.mp3" MP3
  TRACK 01 AUDIO
    TITLE "3:cjc004_1110"
    INDEX 01 00:00:00
  TRACK 02 AUDIO
    TITLE "0:"
    INDEX 01 00:01:03
  TRACK 03 AUDIO
    TITLE "4:cjc004_1111"
    INDEX 01 00:01:34
  TRACK 04 AUDIO
    TITLE "0:"
    INDEX 01 00:02:61
  TRACK 05 AUDIO
    TITLE "5:cjc004_1112"
    INDEX 01 00:03:15
  TRACK 06 AUDIO
    TITLE "0:"
    INDEX 01 00:08:52
  TRACK 07 AUDIO
    TITLE "3:cjc004_1113"
    INDEX 01 00:09:34
  TRACK 08 AUDIO
    TITLE "0:"
    INDEX 01 00:10:43
  TRACK 09 AUDIO
    TITLE "4:cjc004_1114"
    INDEX 01 00:11:05
  TRACK 10 AUDIO
    TITLE "0:"
    INDEX 01 00:12:22
  TRACK 11 AUDIO
    TITLE "5:cjc004_1115"
    INDEX 01 00:12:54
  TRACK 12 AUDIO
    TITLE "0:"
    INDEX 01 00:16:69
  TRACK 13 AUDIO
    TITLE "3:cjc004_1116"
    INDEX 01 00:17:61
  TRACK 14 AUDIO
    TITLE "0:"
    INDEX 01 00:19:03
  TRACK 15 AUDIO
    TITLE "4:cjc004_1117"
    INDEX 01 00:19:32
  TRACK 16 AUDIO
    TITLE "0:"
    INDEX 01 00:20:61
  TRACK 17 AUDIO
    TITLE "5:cjc004_1118"
    INDEX 01 00:21:19
  TRACK 18 AUDIO
    TITLE "0:"
    INDEX 01 00:25:39
  TRACK 19 AUDIO
    TITLE "3:cjc004_1119"
    INDEX 01 00:26:20
  TRACK 20 AUDIO
    TITLE "0:"
    INDEX 01 00:27:47
  TRACK 21 AUDIO
    TITLE "4:cjc004_1120"
    INDEX 01 00:28:12
  TRACK 22 AUDIO
    TITLE "0:"
    INDEX 01 00:29:44
  TRACK 23 AUDIO
    TITLE "5:cjc004_1121"
    INDEX 01 00:29:74
  TRACK 24 AUDIO
    TITLE "0:"
    INDEX 01 00:35:17
  TRACK 25 AUDIO
    TITLE "3:cjc004_1122"
    INDEX 01 00:36:03
  TRACK 26 AUDIO
    TITLE "0:"
    INDEX 01 00:37:08
  TRACK 27 AUDIO
    TITLE "4:cjc004_1123"
    INDEX 01 00:37:50
  TRACK 28 AUDIO
    TITLE "0:"
    INDEX 01 00:39:00
  TRACK 29 AUDIO
    TITLE "5:cjc004_1124"
    INDEX 01 00:39:29
  TRACK 30 AUDIO
    TITLE "0:"
    INDEX 01 00:44:46
  TRACK 31 AUDIO
    TITLE "3:cjc004_1125"
    INDEX 01 00:45:32
  TRACK 32 AUDIO
    TITLE "0:"
    INDEX 01 00:46:43
  TRACK 33 AUDIO
    TITLE "4:cjc004_1126"
    INDEX 01 00:46:72
  TRACK 34 AUDIO
    TITLE "0:"
    INDEX 01 00:48:04
  TRACK 35 AUDIO
    TITLE "5:cjc004_1127"
    INDEX 01 00:48:36
  TRACK 36 AUDIO
    TITLE "0:"
    INDEX 01 00:53:43
  TRACK 37 AUDIO
    TITLE "3:cjc004_1128"
    INDEX 01 00:54:32
  TRACK 38 AUDIO
    TITLE "0:"
    INDEX 01 00:55:50
  TRACK 39 AUDIO
    TITLE "4:cjc004_1129"
    INDEX 01 00:56:18
  TRACK 40 AUDIO
    TITLE "0:"
    INDEX 01 00:57:45
  TRACK 41 AUDIO
    TITLE "5:cjc004_1130"
    INDEX 01 00:57:74
  TRACK 42 AUDIO
    TITLE "0:"
    INDEX 01 01:04:60
  TRACK 43 AUDIO
    TITLE "3:cjc004_1131"
    INDEX 01 01:05:36
  TRACK 44 AUDIO
    TITLE "0:"
    INDEX 01 01:06:36
  TRACK 45 AUDIO
    TITLE "4:cjc004_1132"
    INDEX 01 01:06:73
  TRACK 46 AUDIO
    TITLE "0:"
    INDEX 01 01:07:57
  TRACK 47 AUDIO
    TITLE "5:cjc004_1133"
    INDEX 01 01:08:15
  TRACK 48 AUDIO
    TITLE "0:"
    INDEX 01 01:12:46
  TRACK 49 AUDIO
    TITLE "3:cjc004_1134"
    INDEX 01 01:13:28
  TRACK 50 AUDIO
    TITLE "0:"
    INDEX 01 01:14:39
  TRACK 51 AUDIO
    TITLE "4:cjc004_1135"
    INDEX 01 01:14:68
  TRACK 52 AUDIO
    TITLE "0:"
    INDEX 01 01:15:70
  TRACK 53 AUDIO
    TITLE "5:cjc004_1136"
    INDEX 01 01:16:28
  TRACK 54 AUDIO
    TITLE "0:"
    INDEX 01 01:20:02
  TRACK 55 AUDIO
    TITLE "3:cjc004_1137"
    INDEX 01 01:20:63
  TRACK 56 AUDIO
    TITLE "0:"
    INDEX 01 01:22:01
  TRACK 57 AUDIO
    TITLE "4:cjc004_1138"
    INDEX 01 01:22:23
  TRACK 58 AUDIO
    TITLE "0:"
    INDEX 01 01:23:34
  TRACK 59 AUDIO
    TITLE "5:cjc004_1139"
    INDEX 01 01:23:67
  TRACK 60 AUDIO
    TITLE "0:"
    INDEX 01 01:28:18
